G04*
G04 #@! TF.GenerationSoftware,Altium Limited,Altium Designer,25.1.2 (22)*
G04*
G04 Layer_Color=65535*
%FSLAX44Y44*%
%MOMM*%
G71*
G04*
G04 #@! TF.SameCoordinates,9535EB50-0258-4A23-84A0-ABDCE19BAB1E*
G04*
G04*
G04 #@! TF.FilePolarity,Positive*
G04*
G01*
G75*
%ADD10C,0.2540*%
%ADD11C,0.1270*%
%ADD12C,0.1500*%
%ADD13C,0.1524*%
%ADD14C,0.3048*%
%ADD15C,0.1451*%
%ADD16C,0.1036*%
%ADD17C,0.1209*%
D10*
X954104Y301020D02*
G03*
X964010Y311180I-127J10033D01*
G01*
X303610D02*
G03*
X313770Y301020I10160J0D01*
G01*
Y834420D02*
G03*
X303610Y824514I-127J-10033D01*
G01*
X313770Y834420D02*
X948770D01*
X964010Y819180D01*
Y704880D02*
Y819180D01*
X989410Y351820D02*
Y679480D01*
X964010Y326420D02*
X989410Y351820D01*
X964010Y311180D02*
Y326420D01*
X313770Y301020D02*
X954104D01*
X303610Y311180D02*
Y824514D01*
X964010Y704880D02*
X989410Y679480D01*
X1235971Y1005586D02*
Y1015743D01*
X1241049Y1020821D01*
X1246128Y1015743D01*
Y1005586D01*
Y1013204D01*
X1235971D01*
X1251206Y1005586D02*
Y1015743D01*
X1258824D01*
X1261363Y1013204D01*
Y1005586D01*
X1268980Y1015743D02*
X1274059D01*
X1276598Y1013204D01*
Y1005586D01*
X1268980D01*
X1266441Y1008125D01*
X1268980Y1010664D01*
X1276598D01*
X1281676Y1005586D02*
X1286755D01*
X1284215D01*
Y1020821D01*
X1281676D01*
X1296911Y1005586D02*
X1301990D01*
X1304529Y1008125D01*
Y1013204D01*
X1301990Y1015743D01*
X1296911D01*
X1294372Y1013204D01*
Y1008125D01*
X1296911Y1005586D01*
X1314686Y1000508D02*
X1317225D01*
X1319764Y1003047D01*
Y1015743D01*
X1312146D01*
X1309607Y1013204D01*
Y1008125D01*
X1312146Y1005586D01*
X1319764D01*
X1350234Y1020821D02*
X1345156D01*
X1347695D01*
Y1008125D01*
X1345156Y1005586D01*
X1342616D01*
X1340077Y1008125D01*
X1357852Y1005586D02*
X1362930D01*
X1365469Y1008125D01*
Y1013204D01*
X1362930Y1015743D01*
X1357852D01*
X1355312Y1013204D01*
Y1008125D01*
X1357852Y1005586D01*
X1370547Y1015743D02*
Y1008125D01*
X1373087Y1005586D01*
X1380704D01*
Y1003047D01*
X1378165Y1000508D01*
X1375626D01*
X1380704Y1005586D02*
Y1015743D01*
X1385782Y1005586D02*
X1393400D01*
X1395939Y1008125D01*
X1393400Y1010664D01*
X1388322D01*
X1385782Y1013204D01*
X1388322Y1015743D01*
X1395939D01*
X1403557Y1018282D02*
Y1015743D01*
X1401018D01*
X1406096D01*
X1403557D01*
Y1008125D01*
X1406096Y1005586D01*
X1413714D02*
X1418792D01*
X1416253D01*
Y1015743D01*
X1413714D01*
X1436566D02*
X1428949D01*
X1426409Y1013204D01*
Y1008125D01*
X1428949Y1005586D01*
X1436566D01*
X1441644D02*
Y1020821D01*
Y1010664D02*
X1449262Y1015743D01*
X1441644Y1010664D02*
X1449262Y1005586D01*
X489210Y561420D02*
Y571577D01*
X494288Y576655D01*
X499367Y571577D01*
Y561420D01*
Y569038D01*
X489210D01*
X504445Y571577D02*
Y561420D01*
Y566498D01*
X506984Y569038D01*
X509523Y571577D01*
X512063D01*
X529837Y576655D02*
Y561420D01*
X522219D01*
X519680Y563959D01*
Y569038D01*
X522219Y571577D01*
X529837D01*
X534915D02*
Y563959D01*
X537454Y561420D01*
X545072D01*
Y571577D01*
X550150Y561420D02*
X555229D01*
X552690D01*
Y571577D01*
X550150D01*
X562846Y561420D02*
Y571577D01*
X570464D01*
X573003Y569038D01*
Y561420D01*
X580620D02*
X585699D01*
X588238Y563959D01*
Y569038D01*
X585699Y571577D01*
X580620D01*
X578081Y569038D01*
Y563959D01*
X580620Y561420D01*
X608551Y576655D02*
Y561420D01*
X616169D01*
X618708Y563959D01*
Y574116D01*
X616169Y576655D01*
X608551D01*
X626326Y571577D02*
X631404D01*
X633943Y569038D01*
Y561420D01*
X626326D01*
X623787Y563959D01*
X626326Y566498D01*
X633943D01*
X641561Y574116D02*
Y571577D01*
X639021D01*
X644100D01*
X641561D01*
Y563959D01*
X644100Y561420D01*
X654257Y571577D02*
X659335D01*
X661874Y569038D01*
Y561420D01*
X654257D01*
X651717Y563959D01*
X654257Y566498D01*
X661874D01*
X666953Y561420D02*
X672031D01*
X669492D01*
Y576655D01*
X666953D01*
X682188Y561420D02*
X687266D01*
X689805Y563959D01*
Y569038D01*
X687266Y571577D01*
X682188D01*
X679648Y569038D01*
Y563959D01*
X682188Y561420D01*
X699962Y556342D02*
X702501D01*
X705040Y558881D01*
Y571577D01*
X697423D01*
X694883Y569038D01*
Y563959D01*
X697423Y561420D01*
X705040D01*
X715197Y556342D02*
X717736D01*
X720275Y558881D01*
Y571577D01*
X712658D01*
X710118Y569038D01*
Y563959D01*
X712658Y561420D01*
X720275D01*
X732971D02*
X727893D01*
X725354Y563959D01*
Y569038D01*
X727893Y571577D01*
X732971D01*
X735510Y569038D01*
Y566498D01*
X725354D01*
X740589Y571577D02*
Y561420D01*
Y566498D01*
X743128Y569038D01*
X745667Y571577D01*
X748206D01*
X781216Y574116D02*
X778676Y576655D01*
X773598D01*
X771059Y574116D01*
Y571577D01*
X773598Y569038D01*
X778676D01*
X781216Y566498D01*
Y563959D01*
X778676Y561420D01*
X773598D01*
X771059Y563959D01*
X786294Y576655D02*
Y561420D01*
Y569038D01*
X788833Y571577D01*
X793911D01*
X796451Y569038D01*
Y561420D01*
X801529D02*
X806607D01*
X804068D01*
Y571577D01*
X801529D01*
X821842Y561420D02*
X816764D01*
X814225Y563959D01*
Y569038D01*
X816764Y571577D01*
X821842D01*
X824382Y569038D01*
Y566498D01*
X814225D01*
X829460Y561420D02*
X834538D01*
X831999D01*
Y576655D01*
X829460D01*
X852312D02*
Y561420D01*
X844695D01*
X842156Y563959D01*
Y569038D01*
X844695Y571577D01*
X852312D01*
X1118874Y806452D02*
Y821687D01*
X1126492D01*
X1129031Y819148D01*
Y814070D01*
X1126492Y811531D01*
X1118874D01*
X1123952D02*
X1129031Y806452D01*
X1134109Y819148D02*
X1136648Y821687D01*
X1141727D01*
X1144266Y819148D01*
Y816609D01*
X1141727Y814070D01*
X1139187D01*
X1141727D01*
X1144266Y811531D01*
Y808992D01*
X1141727Y806452D01*
X1136648D01*
X1134109Y808992D01*
X1054104Y805182D02*
Y820417D01*
X1061722D01*
X1064261Y817878D01*
Y812800D01*
X1061722Y810261D01*
X1054104D01*
X1059183D02*
X1064261Y805182D01*
X1079496D02*
X1069339D01*
X1079496Y815339D01*
Y817878D01*
X1076957Y820417D01*
X1071878D01*
X1069339Y817878D01*
X1011503Y745492D02*
Y760727D01*
X1019121D01*
X1021660Y758188D01*
Y753110D01*
X1019121Y750571D01*
X1011503D01*
X1016582D02*
X1021660Y745492D01*
X1026738D02*
X1031817D01*
X1029278D01*
Y760727D01*
X1026738Y758188D01*
X1139571Y733679D02*
X1154806D01*
Y726061D01*
X1152267Y723522D01*
X1147188D01*
X1144649Y726061D01*
Y733679D01*
Y728601D02*
X1139571Y723522D01*
Y710826D02*
Y715905D01*
X1142110Y718444D01*
X1147188D01*
X1149728Y715905D01*
Y710826D01*
X1147188Y708287D01*
X1144649D01*
Y718444D01*
X1154806Y693052D02*
X1139571D01*
Y700670D01*
X1142110Y703209D01*
X1147188D01*
X1149728Y700670D01*
Y693052D01*
X1137032Y687974D02*
Y677817D01*
X1154806Y672739D02*
X1139571D01*
Y662582D01*
X1154806Y647347D02*
Y657504D01*
X1139571D01*
Y647347D01*
X1147188Y657504D02*
Y652425D01*
X1154806Y642269D02*
X1139571D01*
Y634651D01*
X1142110Y632112D01*
X1152267D01*
X1154806Y634651D01*
Y642269D01*
X1186816Y761870D02*
X1176659D01*
X1174120Y759331D01*
Y754252D01*
X1176659Y751713D01*
X1186816D01*
X1189355Y754252D01*
Y759331D01*
X1184277Y756791D02*
X1189355Y761870D01*
Y759331D02*
X1186816Y761870D01*
X1189355Y766948D02*
Y772026D01*
Y769487D01*
X1174120D01*
X1176659Y766948D01*
X1046482Y582948D02*
X1043943Y580409D01*
Y575331D01*
X1046482Y572791D01*
X1056639D01*
X1059178Y575331D01*
Y580409D01*
X1056639Y582948D01*
X1051560D01*
Y577870D01*
X1049021Y588026D02*
X1059178D01*
X1054100D01*
X1051560Y590566D01*
X1049021Y593105D01*
Y595644D01*
X1059178Y610879D02*
Y605801D01*
X1056639Y603261D01*
X1051560D01*
X1049021Y605801D01*
Y610879D01*
X1051560Y613418D01*
X1054100D01*
Y603261D01*
X1059178Y626114D02*
Y621036D01*
X1056639Y618497D01*
X1051560D01*
X1049021Y621036D01*
Y626114D01*
X1051560Y628653D01*
X1054100D01*
Y618497D01*
X1059178Y633732D02*
X1049021D01*
Y641349D01*
X1051560Y643888D01*
X1059178D01*
X1061717Y648967D02*
Y659123D01*
X1043943Y664202D02*
X1059178D01*
Y674359D01*
X1043943Y689594D02*
Y679437D01*
X1059178D01*
Y689594D01*
X1051560Y679437D02*
Y684515D01*
X1043943Y694672D02*
X1059178D01*
Y702290D01*
X1056639Y704829D01*
X1046482D01*
X1043943Y702290D01*
Y694672D01*
X567716Y502923D02*
Y513079D01*
X572794Y518158D01*
X577873Y513079D01*
Y502923D01*
Y510540D01*
X567716D01*
X582951Y513079D02*
Y502923D01*
Y508001D01*
X585490Y510540D01*
X588029Y513079D01*
X590569D01*
X608343Y518158D02*
Y502923D01*
X600725D01*
X598186Y505462D01*
Y510540D01*
X600725Y513079D01*
X608343D01*
X613421D02*
Y505462D01*
X615960Y502923D01*
X623578D01*
Y513079D01*
X628656Y502923D02*
X633735D01*
X631195D01*
Y513079D01*
X628656D01*
X641352Y502923D02*
Y513079D01*
X648970D01*
X651509Y510540D01*
Y502923D01*
X659126D02*
X664205D01*
X666744Y505462D01*
Y510540D01*
X664205Y513079D01*
X659126D01*
X656587Y510540D01*
Y505462D01*
X659126Y502923D01*
X687057Y518158D02*
Y505462D01*
X689596Y502923D01*
X694675D01*
X697214Y505462D01*
Y518158D01*
X702292Y502923D02*
Y513079D01*
X709910D01*
X712449Y510540D01*
Y502923D01*
X720067D02*
X725145D01*
X727684Y505462D01*
Y510540D01*
X725145Y513079D01*
X720067D01*
X717527Y510540D01*
Y505462D01*
X720067Y502923D01*
D11*
X287030Y1229500D02*
X1087030D01*
X287030Y869500D02*
Y1229500D01*
Y869500D02*
X1087030D01*
Y1229500D01*
D12*
X1130300Y791750D02*
Y795750D01*
X1063570Y791750D02*
Y795750D01*
X1022930Y729520D02*
Y733520D01*
X1111140Y729520D02*
Y733520D01*
X1065110Y728250D02*
Y732250D01*
D13*
X754460Y821720D02*
X767160D01*
X773510Y815370D01*
X767160Y796320D02*
X773510Y802670D01*
X748110Y815370D02*
X754460Y821720D01*
X748110Y802670D02*
Y815370D01*
Y802670D02*
X754460Y796320D01*
X767160D01*
X932260Y821720D02*
X944960D01*
X951310Y815370D01*
X944960Y796320D02*
X951310Y802670D01*
Y815370D01*
X919560Y821720D02*
X925910Y815370D01*
X906860Y821720D02*
X919560D01*
X900510Y815370D02*
X906860Y821720D01*
X900510Y802670D02*
Y815370D01*
Y802670D02*
X906860Y796320D01*
X919560D01*
X925910Y802670D01*
Y815370D02*
X932260Y821720D01*
X925910Y802670D02*
Y815370D01*
Y802670D02*
X932260Y796320D01*
X944960D01*
X856060Y821720D02*
X868760D01*
X875110Y815370D01*
X868760Y796320D02*
X875110Y802670D01*
X894160Y821720D02*
X900510Y815370D01*
X881460Y821720D02*
X894160D01*
X875110Y815370D02*
X881460Y821720D01*
X875110Y802670D02*
Y815370D01*
Y802670D02*
X881460Y796320D01*
X894160D01*
X900510Y802670D01*
X843360Y821720D02*
X849710Y815370D01*
X830660Y821720D02*
X843360D01*
X824310Y815370D02*
X830660Y821720D01*
X824310Y802670D02*
Y815370D01*
Y802670D02*
X830660Y796320D01*
X843360D01*
X849710Y802670D01*
Y815370D02*
X856060Y821720D01*
X849710Y802670D02*
Y815370D01*
Y802670D02*
X856060Y796320D01*
X868760D01*
X779860Y821720D02*
X792560D01*
X798910Y815370D01*
X792560Y796320D02*
X798910Y802670D01*
X817960Y821720D02*
X824310Y815370D01*
X805260Y821720D02*
X817960D01*
X798910Y815370D02*
X805260Y821720D01*
X798910Y802670D02*
Y815370D01*
Y802670D02*
X805260Y796320D01*
X817960D01*
X824310Y802670D01*
X773510Y815370D02*
X779860Y821720D01*
X773510Y802670D02*
Y815370D01*
Y802670D02*
X779860Y796320D01*
X792560D01*
X485220Y821720D02*
X497920D01*
X504270Y815370D01*
X497920Y796320D02*
X504270Y802670D01*
X478870Y815370D02*
X485220Y821720D01*
X478870Y802670D02*
Y815370D01*
Y802670D02*
X485220Y796320D01*
X497920D01*
X713820Y821720D02*
X726520D01*
X732870Y815370D01*
X726520Y796320D02*
X732870Y802670D01*
Y815370D01*
X701120Y821720D02*
X707470Y815370D01*
X688420Y821720D02*
X701120D01*
X682070Y815370D02*
X688420Y821720D01*
X682070Y802670D02*
Y815370D01*
Y802670D02*
X688420Y796320D01*
X701120D01*
X707470Y802670D01*
Y815370D02*
X713820Y821720D01*
X707470Y802670D02*
Y815370D01*
Y802670D02*
X713820Y796320D01*
X726520D01*
X637620Y821720D02*
X650320D01*
X656670Y815370D01*
X650320Y796320D02*
X656670Y802670D01*
X675720Y821720D02*
X682070Y815370D01*
X663020Y821720D02*
X675720D01*
X656670Y815370D02*
X663020Y821720D01*
X656670Y802670D02*
Y815370D01*
Y802670D02*
X663020Y796320D01*
X675720D01*
X682070Y802670D01*
X624920Y821720D02*
X631270Y815370D01*
X612220Y821720D02*
X624920D01*
X605870Y815370D02*
X612220Y821720D01*
X605870Y802670D02*
Y815370D01*
Y802670D02*
X612220Y796320D01*
X624920D01*
X631270Y802670D01*
Y815370D02*
X637620Y821720D01*
X631270Y802670D02*
Y815370D01*
Y802670D02*
X637620Y796320D01*
X650320D01*
X561420Y821720D02*
X574120D01*
X580470Y815370D01*
X574120Y796320D02*
X580470Y802670D01*
X599520Y821720D02*
X605870Y815370D01*
X586820Y821720D02*
X599520D01*
X580470Y815370D02*
X586820Y821720D01*
X580470Y802670D02*
Y815370D01*
Y802670D02*
X586820Y796320D01*
X599520D01*
X605870Y802670D01*
X548720Y821720D02*
X555070Y815370D01*
X536020Y821720D02*
X548720D01*
X529670Y815370D02*
X536020Y821720D01*
X529670Y802670D02*
Y815370D01*
Y802670D02*
X536020Y796320D01*
X548720D01*
X555070Y802670D01*
Y815370D02*
X561420Y821720D01*
X555070Y802670D02*
Y815370D01*
Y802670D02*
X561420Y796320D01*
X574120D01*
X523320Y821720D02*
X529670Y815370D01*
X510620Y821720D02*
X523320D01*
X504270Y815370D02*
X510620Y821720D01*
X504270Y802670D02*
Y815370D01*
Y802670D02*
X510620Y796320D01*
X523320D01*
X529670Y802670D01*
X932260Y313720D02*
X944960D01*
X925910Y320070D02*
X932260Y313720D01*
X925910Y332770D02*
X932260Y339120D01*
X944960Y313720D02*
X951310Y320070D01*
Y332770D01*
X944960Y339120D02*
X951310Y332770D01*
X932260Y339120D02*
X944960D01*
X805260Y313720D02*
X817960D01*
X798910Y320070D02*
X805260Y313720D01*
X798910Y332770D02*
X805260Y339120D01*
X798910Y320070D02*
Y332770D01*
X824310Y320070D02*
X830660Y313720D01*
X843360D01*
X849710Y320070D01*
Y332770D01*
X843360Y339120D02*
X849710Y332770D01*
X830660Y339120D02*
X843360D01*
X824310Y332770D02*
X830660Y339120D01*
X817960Y313720D02*
X824310Y320070D01*
Y332770D01*
X817960Y339120D02*
X824310Y332770D01*
X805260Y339120D02*
X817960D01*
X881460Y313720D02*
X894160D01*
X875110Y320070D02*
X881460Y313720D01*
X875110Y332770D02*
X881460Y339120D01*
X849710Y320070D02*
X856060Y313720D01*
X868760D01*
X875110Y320070D01*
Y332770D01*
X868760Y339120D02*
X875110Y332770D01*
X856060Y339120D02*
X868760D01*
X849710Y332770D02*
X856060Y339120D01*
X900510Y320070D02*
X906860Y313720D01*
X919560D01*
X925910Y320070D01*
Y332770D01*
X919560Y339120D02*
X925910Y332770D01*
X906860Y339120D02*
X919560D01*
X900510Y332770D02*
X906860Y339120D01*
X894160Y313720D02*
X900510Y320070D01*
Y332770D01*
X894160Y339120D02*
X900510Y332770D01*
X881460Y339120D02*
X894160D01*
X754460Y313720D02*
X767160D01*
X748110Y320070D02*
X754460Y313720D01*
X748110Y332770D02*
X754460Y339120D01*
X767160Y313720D02*
X773510Y320070D01*
Y332770D01*
X767160Y339120D02*
X773510Y332770D01*
X754460Y339120D02*
X767160D01*
X576660Y313720D02*
X589360D01*
X570310Y320070D02*
X576660Y313720D01*
X570310Y332770D02*
X576660Y339120D01*
X570310Y320070D02*
Y332770D01*
X595710Y320070D02*
X602060Y313720D01*
X614760D01*
X621110Y320070D01*
Y332770D01*
X614760Y339120D02*
X621110Y332770D01*
X602060Y339120D02*
X614760D01*
X595710Y332770D02*
X602060Y339120D01*
X589360Y313720D02*
X595710Y320070D01*
Y332770D01*
X589360Y339120D02*
X595710Y332770D01*
X576660Y339120D02*
X589360D01*
X652860Y313720D02*
X665560D01*
X646510Y320070D02*
X652860Y313720D01*
X646510Y332770D02*
X652860Y339120D01*
X621110Y320070D02*
X627460Y313720D01*
X640160D01*
X646510Y320070D01*
Y332770D01*
X640160Y339120D02*
X646510Y332770D01*
X627460Y339120D02*
X640160D01*
X621110Y332770D02*
X627460Y339120D01*
X671910Y320070D02*
X678260Y313720D01*
X690960D01*
X697310Y320070D01*
Y332770D01*
X690960Y339120D02*
X697310Y332770D01*
X678260Y339120D02*
X690960D01*
X671910Y332770D02*
X678260Y339120D01*
X665560Y313720D02*
X671910Y320070D01*
Y332770D01*
X665560Y339120D02*
X671910Y332770D01*
X652860Y339120D02*
X665560D01*
X729060Y313720D02*
X741760D01*
X722710Y320070D02*
X729060Y313720D01*
X722710Y332770D02*
X729060Y339120D01*
X697310Y320070D02*
X703660Y313720D01*
X716360D01*
X722710Y320070D01*
Y332770D01*
X716360Y339120D02*
X722710Y332770D01*
X703660Y339120D02*
X716360D01*
X697310Y332770D02*
X703660Y339120D01*
X741760Y313720D02*
X748110Y320070D01*
Y332770D01*
X741760Y339120D02*
X748110Y332770D01*
X729060Y339120D02*
X741760D01*
D14*
X904320Y762030D02*
X922100D01*
X913210Y770920D02*
X922100Y762030D01*
X904320D02*
X913210Y770920D01*
X930990D02*
X948770D01*
X930990D02*
X939880Y762030D01*
X948770Y770920D01*
X908130Y763300D02*
X913210Y768380D01*
X918290Y763300D01*
X910670D02*
X918290D01*
X910670D02*
X914480Y765840D01*
X934800Y769650D02*
X944960D01*
X939880Y764570D02*
X944960Y769650D01*
X936070Y768380D02*
X939880Y764570D01*
X936070Y768380D02*
X941150D01*
X939880Y765840D02*
Y767110D01*
D15*
X681238Y356287D02*
X673180D01*
Y350243D01*
X677209Y352258D01*
X679223D01*
X681238Y350243D01*
Y346214D01*
X679223Y344200D01*
X675194D01*
X673180Y346214D01*
X685266Y356287D02*
Y348229D01*
X689295Y344200D01*
X693324Y348229D01*
Y356287D01*
X746840D02*
Y348229D01*
X750869Y344200D01*
X754898Y348229D01*
Y356287D01*
X758926D02*
X762955D01*
X760941D01*
Y344200D01*
X758926D01*
X762955D01*
X768999D02*
Y356287D01*
X777056Y344200D01*
Y356287D01*
X711972Y354272D02*
X709957Y356287D01*
X705928D01*
X703914Y354272D01*
Y346214D01*
X705928Y344200D01*
X709957D01*
X711972Y346214D01*
Y350243D01*
X707943D01*
X716001Y344200D02*
Y356287D01*
X724058Y344200D01*
Y356287D01*
X728087D02*
Y344200D01*
X734130D01*
X736145Y346214D01*
Y354272D01*
X734130Y356287D01*
X728087D01*
X597636Y773110D02*
Y777139D01*
Y775125D01*
X585550D01*
X587564Y773110D01*
Y783182D02*
X585550Y785197D01*
Y789226D01*
X587564Y791240D01*
X589579D01*
X591593Y789226D01*
Y787211D01*
Y789226D01*
X593608Y791240D01*
X595622D01*
X597636Y789226D01*
Y785197D01*
X595622Y783182D01*
X623036Y773110D02*
Y777139D01*
Y775125D01*
X610950D01*
X612964Y773110D01*
X623036Y791240D02*
Y783182D01*
X614979Y791240D01*
X612964D01*
X610950Y789226D01*
Y785197D01*
X612964Y783182D01*
X648437Y777139D02*
Y781168D01*
Y779154D01*
X636350D01*
X638364Y777139D01*
X648437Y787211D02*
Y791240D01*
Y789226D01*
X636350D01*
X638364Y787211D01*
X673837Y773110D02*
Y777139D01*
Y775125D01*
X661750D01*
X663764Y773110D01*
Y783182D02*
X661750Y785197D01*
Y789226D01*
X663764Y791240D01*
X671822D01*
X673837Y789226D01*
Y785197D01*
X671822Y783182D01*
X663764D01*
X697222D02*
X699237Y785197D01*
Y789226D01*
X697222Y791240D01*
X689164D01*
X687150Y789226D01*
Y785197D01*
X689164Y783182D01*
X691179D01*
X693193Y785197D01*
Y791240D01*
X714564Y783182D02*
X712550Y785197D01*
Y789226D01*
X714564Y791240D01*
X716579D01*
X718593Y789226D01*
X720608Y791240D01*
X722622D01*
X724637Y789226D01*
Y785197D01*
X722622Y783182D01*
X720608D01*
X718593Y785197D01*
X716579Y783182D01*
X714564D01*
X718593Y785197D02*
Y789226D01*
X753190Y783182D02*
Y791240D01*
X755204D01*
X763262Y783182D01*
X765276D01*
X778590Y791240D02*
X780604Y787211D01*
X784633Y783182D01*
X788662D01*
X790676Y785197D01*
Y789226D01*
X788662Y791240D01*
X786648D01*
X784633Y789226D01*
Y783182D01*
X803990Y791240D02*
Y783182D01*
X810033D01*
X808019Y787211D01*
Y789226D01*
X810033Y791240D01*
X814062D01*
X816077Y789226D01*
Y785197D01*
X814062Y783182D01*
X841477Y789226D02*
X829390D01*
X835433Y783182D01*
Y791240D01*
X856804Y783182D02*
X854790Y785197D01*
Y789226D01*
X856804Y791240D01*
X858819D01*
X860833Y789226D01*
Y787211D01*
Y789226D01*
X862848Y791240D01*
X864862D01*
X866877Y789226D01*
Y785197D01*
X864862Y783182D01*
X892277Y791240D02*
Y783182D01*
X884219Y791240D01*
X882204D01*
X880190Y789226D01*
Y785197D01*
X882204Y783182D01*
X917676Y787211D02*
Y791240D01*
Y789226D01*
X905590D01*
X907604Y787211D01*
X933004Y783182D02*
X930990Y785197D01*
Y789226D01*
X933004Y791240D01*
X941062D01*
X943076Y789226D01*
Y785197D01*
X941062Y783182D01*
X933004D01*
D16*
X803736Y344454D02*
Y350210D01*
X806614Y353087D01*
X809492Y350210D01*
Y344454D01*
Y348771D01*
X803736D01*
X812369Y351648D02*
X813808Y353087D01*
X816686D01*
X818125Y351648D01*
Y345893D01*
X816686Y344454D01*
X813808D01*
X812369Y345893D01*
Y351648D01*
X829136Y344454D02*
Y350210D01*
X832014Y353087D01*
X834892Y350210D01*
Y344454D01*
Y348771D01*
X829136D01*
X837769Y344454D02*
X840647D01*
X839208D01*
Y353087D01*
X837769Y351648D01*
X854536Y344454D02*
Y350210D01*
X857414Y353087D01*
X860292Y350210D01*
Y344454D01*
Y348771D01*
X854536D01*
X868925Y344454D02*
X863169D01*
X868925Y350210D01*
Y351648D01*
X867486Y353087D01*
X864608D01*
X863169Y351648D01*
X879936Y344454D02*
Y350210D01*
X882814Y353087D01*
X885692Y350210D01*
Y344454D01*
Y348771D01*
X879936D01*
X888569Y351648D02*
X890008Y353087D01*
X892886D01*
X894325Y351648D01*
Y350210D01*
X892886Y348771D01*
X891447D01*
X892886D01*
X894325Y347332D01*
Y345893D01*
X892886Y344454D01*
X890008D01*
X888569Y345893D01*
X905336Y344454D02*
Y350210D01*
X908214Y353087D01*
X911092Y350210D01*
Y344454D01*
Y348771D01*
X905336D01*
X918286Y344454D02*
Y353087D01*
X913969Y348771D01*
X919725D01*
X930736Y344454D02*
Y350210D01*
X933614Y353087D01*
X936491Y350210D01*
Y344454D01*
Y348771D01*
X930736D01*
X945125Y353087D02*
X939369D01*
Y348771D01*
X942247Y350210D01*
X943686D01*
X945125Y348771D01*
Y345893D01*
X943686Y344454D01*
X940808D01*
X939369Y345893D01*
D17*
X546074Y748447D02*
X538017D01*
X533988Y752476D01*
X538017Y756505D01*
X546074D01*
X540031D01*
Y748447D01*
X546074Y760533D02*
X533988D01*
Y766577D01*
X536002Y768591D01*
X540031D01*
X542046Y766577D01*
Y760533D01*
Y764562D02*
X546074Y768591D01*
X533988Y780677D02*
Y772620D01*
X546074D01*
Y780677D01*
X540031Y772620D02*
Y776649D01*
X533988Y792764D02*
Y784706D01*
X540031D01*
Y788735D01*
Y784706D01*
X546074D01*
X562418Y768337D02*
X560404Y766323D01*
Y762294D01*
X562418Y760279D01*
X570476D01*
X572491Y762294D01*
Y766323D01*
X570476Y768337D01*
X566447D01*
Y764308D01*
X572491Y772366D02*
X560404D01*
X572491Y780424D01*
X560404D01*
Y784452D02*
X572491D01*
Y790496D01*
X570476Y792510D01*
X562418D01*
X560404Y790496D01*
Y784452D01*
X636350Y345470D02*
X624263D01*
Y351513D01*
X626278Y353528D01*
X630307D01*
X632321Y351513D01*
Y345470D01*
Y349499D02*
X636350Y353528D01*
X624263Y365614D02*
Y357556D01*
X636350D01*
Y365614D01*
X630307Y357556D02*
Y361585D01*
X626278Y377701D02*
X624263Y375686D01*
Y371657D01*
X626278Y369643D01*
X628292D01*
X630307Y371657D01*
Y375686D01*
X632321Y377701D01*
X634336D01*
X636350Y375686D01*
Y371657D01*
X634336Y369643D01*
X624263Y389787D02*
Y381730D01*
X636350D01*
Y389787D01*
X630307Y381730D02*
Y385758D01*
X624263Y393816D02*
Y401874D01*
Y397845D01*
X636350D01*
X654218Y344200D02*
X652204Y346214D01*
Y350243D01*
X654218Y352258D01*
X656232D01*
X658247Y350243D01*
Y348229D01*
Y350243D01*
X660261Y352258D01*
X662276D01*
X664290Y350243D01*
Y346214D01*
X662276Y344200D01*
X652204Y356287D02*
X660261D01*
X664290Y360315D01*
X660261Y364344D01*
X652204D01*
X654218Y368373D02*
X652204Y370387D01*
Y374416D01*
X654218Y376431D01*
X656232D01*
X658247Y374416D01*
Y372402D01*
Y374416D01*
X660261Y376431D01*
X662276D01*
X664290Y374416D01*
Y370387D01*
X662276Y368373D01*
X602673Y345470D02*
Y349499D01*
Y347484D01*
X614760D01*
Y345470D01*
Y349499D01*
X602673Y361585D02*
Y357556D01*
X604688Y355542D01*
X612746D01*
X614760Y357556D01*
Y361585D01*
X612746Y363600D01*
X604688D01*
X602673Y361585D01*
X614760Y367629D02*
X602673D01*
Y373672D01*
X604688Y375686D01*
X608717D01*
X610731Y373672D01*
Y367629D01*
Y371657D02*
X614760Y375686D01*
X602673Y387773D02*
Y379715D01*
X614760D01*
Y387773D01*
X608717Y379715D02*
Y383744D01*
X602673Y399859D02*
Y391801D01*
X608717D01*
Y395830D01*
Y391801D01*
X614760D01*
X908744Y735614D02*
Y743672D01*
Y739643D01*
X920830D01*
X908744Y747701D02*
X920830Y755758D01*
X908744D02*
X920830Y747701D01*
X946230Y735360D02*
X934144D01*
Y741403D01*
X936158Y743418D01*
X940187D01*
X942201Y741403D01*
Y735360D01*
Y739389D02*
X946230Y743418D01*
X934144Y747447D02*
X946230Y755504D01*
X934144D02*
X946230Y747447D01*
X486138Y765478D02*
X484123Y763463D01*
Y759434D01*
X486138Y757420D01*
X488152D01*
X490167Y759434D01*
Y763463D01*
X492181Y765478D01*
X494196D01*
X496210Y763463D01*
Y759434D01*
X494196Y757420D01*
X486138Y777564D02*
X484123Y775550D01*
Y771521D01*
X486138Y769507D01*
X494196D01*
X496210Y771521D01*
Y775550D01*
X494196Y777564D01*
X484123Y781593D02*
X496210D01*
Y789651D01*
X511424Y765348D02*
X509409Y763333D01*
Y759304D01*
X511424Y757290D01*
X513438D01*
X515453Y759304D01*
Y763333D01*
X517467Y765348D01*
X519482D01*
X521496Y763333D01*
Y759304D01*
X519482Y757290D01*
X509409Y769377D02*
X521496D01*
Y775420D01*
X519482Y777434D01*
X511424D01*
X509409Y775420D01*
Y769377D01*
X521496Y781463D02*
X513438D01*
X509409Y785492D01*
X513438Y789521D01*
X521496D01*
X515453D01*
Y781463D01*
M02*
