G04*
G04 #@! TF.GenerationSoftware,Altium Limited,Altium Designer,25.1.2 (22)*
G04*
G04 Layer_Physical_Order=1*
G04 Layer_Color=255*
%FSLAX44Y44*%
%MOMM*%
G71*
G04*
G04 #@! TF.SameCoordinates,9535EB50-0258-4A23-84A0-ABDCE19BAB1E*
G04*
G04*
G04 #@! TF.FilePolarity,Positive*
G04*
G01*
G75*
%ADD10C,0.2540*%
G04:AMPARAMS|DCode=18|XSize=0.55mm|YSize=0.5mm|CornerRadius=0.0625mm|HoleSize=0mm|Usage=FLASHONLY|Rotation=90.000|XOffset=0mm|YOffset=0mm|HoleType=Round|Shape=RoundedRectangle|*
%AMROUNDEDRECTD18*
21,1,0.5500,0.3750,0,0,90.0*
21,1,0.4250,0.5000,0,0,90.0*
1,1,0.1250,0.1875,0.2125*
1,1,0.1250,0.1875,-0.2125*
1,1,0.1250,-0.1875,-0.2125*
1,1,0.1250,-0.1875,0.2125*
%
%ADD18ROUNDEDRECTD18*%
G04:AMPARAMS|DCode=19|XSize=0.4mm|YSize=0.45mm|CornerRadius=0.06mm|HoleSize=0mm|Usage=FLASHONLY|Rotation=0.000|XOffset=0mm|YOffset=0mm|HoleType=Round|Shape=RoundedRectangle|*
%AMROUNDEDRECTD19*
21,1,0.4000,0.3300,0,0,0.0*
21,1,0.2800,0.4500,0,0,0.0*
1,1,0.1200,0.1400,-0.1650*
1,1,0.1200,-0.1400,-0.1650*
1,1,0.1200,-0.1400,0.1650*
1,1,0.1200,0.1400,0.1650*
%
%ADD19ROUNDEDRECTD19*%
G04:AMPARAMS|DCode=20|XSize=0.5mm|YSize=0.45mm|CornerRadius=0.0675mm|HoleSize=0mm|Usage=FLASHONLY|Rotation=0.000|XOffset=0mm|YOffset=0mm|HoleType=Round|Shape=RoundedRectangle|*
%AMROUNDEDRECTD20*
21,1,0.5000,0.3150,0,0,0.0*
21,1,0.3650,0.4500,0,0,0.0*
1,1,0.1350,0.1825,-0.1575*
1,1,0.1350,-0.1825,-0.1575*
1,1,0.1350,-0.1825,0.1575*
1,1,0.1350,0.1825,0.1575*
%
%ADD20ROUNDEDRECTD20*%
%ADD28R,2.0320X10.4140*%
%ADD29R,2.1590X9.7790*%
%ADD30O,1.5080X3.0160*%
%ADD31C,6.0000*%
%ADD32C,1.5240*%
%ADD33C,2.3000*%
D10*
X697230Y1191260D02*
Y1206500D01*
Y1191260D02*
X786210Y1102280D01*
Y809020D02*
Y1102280D01*
X768889Y1136650D02*
X810340D01*
X711280Y1194259D02*
Y1216041D01*
Y1194259D02*
X768889Y1136650D01*
X417830Y1198960D02*
Y1206500D01*
X406480Y1187610D02*
X417830Y1198960D01*
X387729Y1187610D02*
X406480D01*
X378380Y1196959D02*
X387729Y1187610D01*
X372823Y1196959D02*
X378380D01*
X367030Y1202751D02*
X372823Y1196959D01*
X367030Y1202751D02*
Y1206500D01*
X1459230Y1051560D02*
Y1056640D01*
X810340Y1136650D02*
X1449070D01*
X417830Y1206500D02*
Y1214040D01*
X429180Y1225390D01*
X701931D01*
X711280Y1216041D01*
X1449070Y1136650D02*
X1456690Y1129030D01*
Y1117600D02*
Y1129030D01*
X748030Y1198960D02*
X810340Y1136650D01*
X671830Y1198960D02*
X760810Y1109980D01*
Y809020D02*
Y1109980D01*
X694770Y809020D02*
Y1150620D01*
X646430Y1198960D02*
X694770Y1150620D01*
X671830Y1198960D02*
Y1206500D01*
X443230Y984360D02*
X618570Y809020D01*
X443230Y984360D02*
Y1206500D01*
X643970Y809020D02*
Y1049020D01*
X494030Y1198960D02*
X643970Y1049020D01*
X392430Y1214040D02*
X422780Y1244390D01*
X1455210D01*
X1459230Y1248410D01*
X669370Y809020D02*
Y1150620D01*
X621030Y1198960D02*
X669370Y1150620D01*
X494030Y1198960D02*
Y1206500D01*
X748030Y1198960D02*
Y1206500D01*
X392430D02*
Y1214040D01*
X722630Y1206500D02*
Y1214040D01*
X747900Y1239310D01*
X1450340D01*
X1460500Y1229150D01*
Y1188720D02*
Y1229150D01*
X1466850Y1156970D02*
Y1160780D01*
Y1156970D02*
X1499870Y1123950D01*
Y1032728D02*
Y1123950D01*
X1498382Y1031240D02*
X1499870Y1032728D01*
X1412240Y1031240D02*
X1498382D01*
X1365250Y984250D02*
X1412240Y1031240D01*
X1457960Y1055370D02*
X1459230Y1056640D01*
X1449070Y1041400D02*
X1459230Y1051560D01*
X1397000Y1041400D02*
X1449070D01*
X1339850Y984250D02*
X1397000Y1041400D01*
X1314450Y803860D02*
Y984250D01*
X837010Y326420D02*
X1314450Y803860D01*
X1134800Y793500D02*
Y793750D01*
Y793500D02*
X1174590Y753710D01*
X1201230D01*
X1068070Y793750D02*
X1125800D01*
X1125245Y732075D02*
Y793195D01*
X1125800Y793750D01*
X1124690Y731520D02*
X1125245Y732075D01*
X1061890Y731520D02*
X1115590D01*
X1057840Y795230D02*
X1059070Y794000D01*
X1010810Y842010D02*
X1057590Y795230D01*
X858520Y842010D02*
X1010810D01*
X1059070Y793750D02*
Y794000D01*
X1057590Y795230D02*
X1057840D01*
X837010Y809020D02*
X840840Y812850D01*
Y824330D02*
X858520Y842010D01*
X840840Y812850D02*
Y824330D01*
X621030Y1198960D02*
Y1206500D01*
X646430Y1198960D02*
Y1206500D01*
X697230Y1198960D02*
Y1206500D01*
X862410Y809020D02*
X939910Y731520D01*
X1018430D01*
X1027430Y731480D02*
Y731520D01*
Y731480D02*
X1028660Y730250D01*
X1051560D01*
X1060660D02*
Y730290D01*
X1061890Y731520D01*
D18*
X1134800Y793750D02*
D03*
X1125800D02*
D03*
X1059070D02*
D03*
X1068070D02*
D03*
X1018430Y731520D02*
D03*
X1027430D02*
D03*
X1124690Y731520D02*
D03*
X1115590D02*
D03*
X1060660Y730250D02*
D03*
X1051560D02*
D03*
D19*
X1201230Y753710D02*
D03*
X1209230D02*
D03*
D20*
X1205230Y765210D02*
D03*
D28*
X1459230Y1206500D02*
D03*
D29*
X1458595Y1089025D02*
D03*
D30*
X367030Y1206500D02*
D03*
X392430D02*
D03*
X417830D02*
D03*
X443230D02*
D03*
X468630D02*
D03*
X494030D02*
D03*
X519430D02*
D03*
X544830D02*
D03*
X570230D02*
D03*
X595630D02*
D03*
X621030D02*
D03*
X646430D02*
D03*
X671830D02*
D03*
X697230D02*
D03*
X722630D02*
D03*
X748030D02*
D03*
D31*
X312030Y1204500D02*
D03*
X1062030Y1205500D02*
D03*
X312030Y894500D02*
D03*
X1062030D02*
D03*
D32*
X1365250Y984250D02*
D03*
X1339850D02*
D03*
X1263650D02*
D03*
X1289050D02*
D03*
X1314450D02*
D03*
D33*
X760810Y809020D02*
D03*
X786210D02*
D03*
X811610D02*
D03*
X837010D02*
D03*
X862410D02*
D03*
X887810D02*
D03*
X913210D02*
D03*
X938610D02*
D03*
X491570D02*
D03*
X516970D02*
D03*
X542370D02*
D03*
X567770D02*
D03*
X593170D02*
D03*
X618570D02*
D03*
X643970D02*
D03*
X669370D02*
D03*
X694770D02*
D03*
X720170D02*
D03*
X938610Y326420D02*
D03*
X913210D02*
D03*
X887810D02*
D03*
X862410D02*
D03*
X837010D02*
D03*
X811610D02*
D03*
X760810D02*
D03*
X735410D02*
D03*
X710010D02*
D03*
X684610D02*
D03*
X659210D02*
D03*
X633810D02*
D03*
X608410D02*
D03*
X583010D02*
D03*
M02*
